# xmcd
#
# Track frame offsets:
#	150
#	20520
#	40574
#	59619
#	90610
#	102125
#	113700
#	122795
#	144559
#	150310
#	167606
#	185055
#	203971
#	230143
#	254064
#	278378
#
# Disc length: 4039 seconds
#
# Revision: 1
# Processed by: cddbd v1.5.1PL2 Copyright (c) Steve Scherf et al.
# Submitted via: EasyCDDAExtractor 8.0.2.1
#
DISCID=db0fc510
DTITLE=Dio - Monsters Of Rock Messegelande Nurnberg 29-08-87
DYEAR=1987
DGENRE=Hard Rock
TTITLE0=Stand Up And Shout
TTITLE1=Dream Evil
TTITLE2=Neon Knights
TTITLE3=Naked In The Rain
TTITLE4=Rock and Roll Children
TTITLE5=Long Live Rock and Roll
TTITLE6=Rock and Roll Children Reprise
TTITLE7=The Last In Line
TTITLE8=Holy Diver
TTITLE9=Drum Solo
TTITLE10=Heaven and Hell
TTITLE11=Man On The Silver Mountain
TTITLE12=All The Fools Sailed Away
TTITLE13=Sunset Superman
TTITLE14=Rainbow In The Dark
TTITLE15=We Rock
EXTD=
EXTT0=
EXTT1=
EXTT2=
EXTT3=
EXTT4=
EXTT5=
EXTT6=
EXTT7=
EXTT8=
EXTT9=
EXTT10=
EXTT11=
EXTT12=
EXTT13=
EXTT14=
EXTT15=
PLAYORDER=
